<svg width="233" height="80" viewBox="0 0 233 80" fill="none" xmlns="http://www.w3.org/2000/svg">
<g clip-path="url(#clip0_15_44)">
<path d="M33.2501 46.5501H45.2201V35.9101H51.8701V53.2001H26.6001V26.6001H33.2501V46.5501Z" fill="#FE6F39"/>
<path d="M61.1802 53.2001H54.5302V33.2501H42.5602V43.8901H35.9102V26.6001H61.1802V53.2001Z" fill="#FE6F39"/>
<path d="M79.8001 50.5403H73.1501V29.2603H79.8001V50.5403Z" fill="#FE6F39"/>
<path d="M97.0902 39.9003V29.2603H103.74V50.5403H97.0902L89.1102 39.9003V50.5403H82.4602V29.2603H89.1102L97.0902 39.9003Z" fill="#FE6F39"/>
<path d="M125.02 34.5803H113.05V37.2403H124.355V42.5603H113.05V50.5403H106.4V29.2603H125.02V34.5803Z" fill="#FE6F39"/>
<path d="M134.33 50.5403H127.68V29.2603H134.33V50.5403Z" fill="#FE6F39"/>
<path d="M151.62 39.9003V29.2603H158.27V50.5403H151.62L143.64 39.9003V50.5403H136.99V29.2603H143.64L151.62 39.9003Z" fill="#FE6F39"/>
<path d="M179.55 34.5803H167.58V37.2403H178.885V42.5603H167.58V45.2203H179.55V50.5403H160.93V29.2603H179.55V34.5803Z" fill="#FE6F39"/>
<path d="M193.515 34.5803L197.505 29.2603H205.485L197.505 39.9003L205.485 50.5403H197.505L193.515 45.2203L189.525 50.5403H181.545L189.525 39.9003L181.545 29.2603H189.525L193.515 34.5803Z" fill="#FE6F39"/>
</g>
<defs>
<clipPath id="clip0_15_44">
<rect width="179.55" height="26.6" fill="white" transform="translate(26.6001 26.6001)"/>
</clipPath>
</defs>
</svg>
